<?xml version="1.0" encoding="iso-8859-1"?>
<!-- Generator: Adobe Illustrator 20.1.0, SVG Export Plug-In . SVG Version: 6.00 Build 0)  -->
<!DOCTYPE svg PUBLIC "-//W3C//DTD SVG 1.1//EN" "http://www.w3.org/Graphics/SVG/1.1/DTD/svg11.dtd" [
	<!ENTITY st0 "fill:#FFFFFF;">
	<!ENTITY st1 "fill:#060818;">
]>
<svg version="1.1" id="Layer_1" xmlns="http://www.w3.org/2000/svg" xmlns:xlink="http://www.w3.org/1999/xlink" x="0px" y="0px"
	 viewBox="0 0 708 100" style="enable-background:new 0 0 708 100;" xml:space="preserve">
<g>
	<g>
		<g>
			<g>
				<g>
					<g>
						<path style="&st0;" d="M116.133,99.232l-11.938-17.077h86.704c4.571,0,8.089-1.164,10.555-3.497
							c2.465-2.329,3.697-5.423,3.697-9.278c0-4.212-1.232-7.373-3.697-9.48c-2.467-2.105-5.984-3.16-10.555-3.16h-44.912
							c-4.572,0-8.72-0.693-12.439-2.084c-3.722-1.389-6.858-3.315-9.412-5.782c-2.555-2.465-4.528-5.4-5.917-8.808
							c-1.391-3.406-2.085-7.127-2.085-11.162c0-3.943,0.65-7.597,1.951-10.959c1.298-3.361,3.227-6.252,5.782-8.673
							c2.555-2.42,5.715-4.324,9.479-5.715c3.766-1.388,8.069-2.084,12.909-2.084h70.193v17.077h-70.193
							c-3.945,0-6.992,1.055-9.143,3.16c-2.152,2.107-3.227,5.042-3.227,8.808s1.097,6.68,3.294,8.741
							c2.196,2.063,5.176,3.093,8.942,3.093h44.778c9.949,0,17.501,2.333,22.658,6.992c5.153,4.662,7.731,11.745,7.731,21.246
							c0,4.124-0.628,7.933-1.882,11.429c-1.257,3.497-3.139,6.521-5.648,9.077c-2.511,2.555-5.671,4.55-9.479,5.984
							c-3.812,1.435-8.27,2.151-13.379,2.151H116.133z"/>
						<path style="&st0;" d="M323.475,1.474h16.841v53.853c0,7.428-0.998,13.907-2.988,19.432
							c-1.993,5.528-5.116,10.104-9.372,13.729c-4.257,3.627-9.758,6.323-16.502,8.092c-6.747,1.767-14.92,2.652-24.517,2.652
							c-9.507,0-17.636-0.885-24.38-2.652c-6.747-1.768-12.248-4.464-16.502-8.092c-4.257-3.625-7.382-8.201-9.372-13.729
							c-1.993-5.525-2.989-12.004-2.989-19.432V1.474h17.794v53.853c0,4.864,0.61,9.02,1.834,12.468
							c1.222,3.449,3.212,6.28,5.975,8.489c2.762,2.212,6.452,3.826,11.07,4.841c4.617,1.018,10.322,1.526,17.113,1.526
							c6.79,0,12.495-0.508,17.113-1.526c4.618-1.015,8.307-2.63,11.069-4.841c2.762-2.209,4.754-5.04,5.977-8.489
							c1.222-3.448,1.833-7.604,1.833-12.468V1.474z"/>
						<path style="&st0;" d="M451.936,99.232l-24.742-27.162H390.62l11.099-15.06h29.644c6.185,0,10.846-1.681,13.985-5.042
							c3.137-3.362,4.706-8.224,4.706-14.59c0-6.365-1.637-11.094-4.909-14.186c-3.273-3.093-7.867-4.639-13.782-4.639h-53.249
							v80.68h-16.943V1.474h70.191c5.557,0,10.532,0.83,14.927,2.488c4.391,1.659,8.111,4.034,11.161,7.126
							c3.046,3.093,5.379,6.837,6.992,11.228c1.614,4.393,2.421,9.324,2.421,14.791c0,8.159-1.771,14.994-5.312,20.506
							c-3.542,5.513-8.495,9.48-14.858,11.901l29.448,29.717H451.936z"/>
						<path style="&st0;" d="M528.707,99.232c-6.814,0-13.111-1.277-18.893-3.832c-5.782-2.556-10.803-6.051-15.06-10.489
							c-4.259-4.437-7.576-9.702-9.949-15.8c-2.377-6.095-3.564-12.684-3.564-19.767c0-7.17,1.187-13.715,3.564-19.632
							c2.374-5.917,5.691-10.959,9.949-15.127c4.257-4.168,9.279-7.396,15.06-9.682c5.782-2.286,12.08-3.429,18.893-3.429h52.979
							v17.077h-52.979c-4.393,0-8.451,0.786-12.17,2.353c-3.72,1.57-6.925,3.744-9.615,6.521c-2.689,2.78-4.796,6.098-6.319,9.951
							c-1.526,3.855-2.287,8.114-2.287,12.774c0,4.572,0.761,8.83,2.287,12.774c1.523,3.946,3.63,7.329,6.319,10.152
							c2.69,2.824,5.895,5.042,9.615,6.656c3.719,1.614,7.777,2.421,12.17,2.421h41.819V56.74H526.42l11.099-14.388h50.219v56.88
							H528.707z"/>
						<path style="&st0;" d="M607.909,99.232V1.474h97.251v17.077h-80.308v63.603h80.442v17.077H607.909z M637.358,56.74
							l11.099-14.388h53.071V56.74H637.358z"/>
					</g>
				</g>
			</g>
		</g>
	</g>
	<g>
		<polygon style="&st1;" points="118.329,1.474 95.368,1.474 63.154,35.447 31.362,1.474 7.894,1.474 51.277,47.963 2.574,99.285 
			25.436,99.285 62.721,60.072 99.366,99.285 122.889,99.285 74.541,47.616 		"/>
	</g>
</g>
</svg>
